# xmcd
#
# Track frame offsets: 
#        150
#        22068
#        45885
#        64983
#        87686
#        115676
#        142687
#        165243
#        183503
#        217305
#        235441
#        254424
#
# Disc length: 3731 seconds
#
# Revision: 0
# Processed by: cddbd v1.5.2PL0 Copyright (c) Steve Scherf et al.
# Submitted via: ExactAudioCopy v0.99pb5
#
DISCID=a80e910c
DTITLE=Michael Burks - Show Of Strength
DYEAR=2012
DGENRE=Blues
TTITLE0=Count On You
TTITLE1=Take A Chance On Me, Baby
TTITLE2=Storm Warning
TTITLE3=Can You Read Between The Lines?
TTITLE4=Cross Eyed Woman
TTITLE5=Little Juke Joint
TTITLE6=24 Hour Blues
TTITLE7=Valley Of Tears
TTITLE8=Since I Been Loving You
TTITLE9=I Want To Get You Back
TTITLE10=What Does It Take To Please You?
TTITLE11=Feel Like Going Home
EXTD=
EXTT0=
EXTT1=
EXTT2=
EXTT3=
EXTT4=
EXTT5=
EXTT6=
EXTT7=
EXTT8=
EXTT9=
EXTT10=
EXTT11=
PLAYORDER=
